<region> region_label=01_rr1 seq_position=1 key=44 sample=ten_f_01.$EXT volume=-5 tune=-12
<region> region_label=02_rr1 seq_position=1 key=45 sample=ten_f_02.$EXT volume=-3 tune=-8
<region> region_label=03_rr1 seq_position=1 key=46 sample=ten_f_03.$EXT volume=-2 tune=-8
<region> region_label=04_rr1 seq_position=1 key=47 sample=ten_f_04.$EXT volume=-2 tune=-13
<region> region_label=05_rr1 seq_position=1 key=48 sample=ten_f_05.$EXT volume=1 tune=-7
<region> region_label=06_rr1 seq_position=1 key=49 sample=ten_f_06.$EXT volume=-0.5 tune=3
<region> region_label=07_rr1 seq_position=1 key=50 sample=ten_f_07.$EXT tune=-7
<region> region_label=08_rr1 seq_position=1 key=51 sample=ten_f_08.$EXT volume=-1 tune=-9
<region> region_label=09_rr1 seq_position=1 key=52 sample=ten_f_09.$EXT volume=0.5 tune=-14
<region> region_label=10_rr1 seq_position=1 key=53 sample=ten_f_10.$EXT volume=-2 tune=-20
<region> region_label=11_rr1 seq_position=1 key=54 sample=ten_f_11.$EXT volume=-1 tune=-15
<region> region_label=12_rr1 seq_position=1 key=55 sample=ten_f_12.$EXT volume=-0.5 tune=-15
<region> region_label=13_rr1 seq_position=1 key=56 sample=ten_f_13.$EXT tune=-12
<region> region_label=14_rr1 seq_position=1 key=57 sample=ten_f_14.$EXT volume=0.5 tune=-7
<region> region_label=15_rr1 seq_position=1 key=58 sample=ten_f_15.$EXT volume=1 tune=-19
<region> region_label=16_rr1 seq_position=1 key=59 sample=ten_f_16.$EXT volume=2 tune=-18
<region> region_label=17_rr1 seq_position=1 key=60 sample=ten_f_17.$EXT tune=-12
<region> region_label=18_rr1 seq_position=1 key=61 sample=ten_f_18.$EXT volume=-1 tune=-9
<region> region_label=19_rr1 seq_position=1 key=62 sample=ten_f_19.$EXT volume=-2 tune=-18
<region> region_label=20_rr1 seq_position=1 key=63 sample=ten_f_20.$EXT volume=-1 tune=-12
<region> region_label=21_rr1 seq_position=1 key=64 sample=ten_f_21.$EXT volume=1.5 tune=-10
<region> region_label=22_rr1 seq_position=1 key=65 sample=ten_f_22.$EXT tune=-22
<region> region_label=23_rr1 seq_position=1 key=66 sample=ten_f_23.$EXT tune=-17
<region> region_label=24_rr1 seq_position=1 key=67 sample=ten_f_24.$EXT tune=-23
<region> region_label=25_rr1 seq_position=1 key=68 sample=ten_f_25.$EXT volume=-0.5 tune=-13
<region> region_label=26_rr1 seq_position=1 key=69 sample=ten_f_26.$EXT volume=-1 tune=-4
<region> region_label=27_rr1 seq_position=1 key=70 sample=ten_f_27.$EXT volume=-1.5 tune=-9
<region> region_label=28_rr1 seq_position=1 key=71 sample=ten_f_28.$EXT volume=-1 tune=-16
<region> region_label=29_rr1 seq_position=1 key=72 sample=ten_f_29.$EXT volume=-2 tune=-16
<region> region_label=30_rr1 seq_position=1 key=73 sample=ten_f_30.$EXT volume=1 tune=-21
<region> region_label=31_rr1 seq_position=1 key=74 sample=ten_f_31.$EXT volume=-1 tune=-29
<region> region_label=32_rr1 seq_position=1 key=75 sample=ten_f_32.$EXT tune=-32
<region> region_label=33_rr1 seq_position=1 key=76 sample=ten_f_33.$EXT tune=-40